# xmcd
#
# Track frame offsets: 
#        150
#        11370
#        26562
#        45097
#        61160
#        80572
#        91450
#        108110
#        119032
#        129537
#
# Disc length: 1970 seconds
#
# Revision: 1
# Processed by: cddbd v1.5PL3 Copyright (c) Steve Scherf et al.
# Submitted via: ExactAudioCopy v0.90b4
#
DISCID=7307b00a
DTITLE=Alabama and Elvis - Christmas Memories from Alabama and Elvis
DYEAR=1991
DGENRE=Country
TTITLE0=Elvis Presley - Silver Bells
TTITLE1=Alabama - Christmas Memories
TTITLE2=Elvis Presley - O Come All Ye Faithful
TTITLE3=Alabama - Christmas In Dixie
TTITLE4=Alabama - Tonight Is Christmas
TTITLE5=Elvis Presley - Silent Night
TTITLE6=Alabama - Tennessee Christmas
TTITLE7=Elvis Presley - White Christmas
TTITLE8=Elvis Presley - Winter Wonderland 
TTITLE9=Alabama - Thistlehair The Christmas Bear
EXTD=
EXTT0=
EXTT1=
EXTT2=
EXTT3=
EXTT4=
EXTT5=
EXTT6=
EXTT7=
EXTT8=
EXTT9=
PLAYORDER=
